<svg width="20" height="20" viewBox="0 0 20 20" fill="none" xmlns="http://www.w3.org/2000/svg">
<g id="2.svg">
<path id="Vector" d="M9.99959 1.66675C5.40792 1.66675 1.66626 5.40841 1.66626 10.0001C1.66626 14.5917 5.40792 18.3334 9.99959 18.3334C14.5913 18.3334 18.3329 14.5917 18.3329 10.0001C18.3329 5.40841 14.5913 1.66675 9.99959 1.66675ZM13.6246 12.9751C13.5079 13.1751 13.2996 13.2834 13.0829 13.2834C12.9746 13.2834 12.8662 13.2584 12.7662 13.1917L10.1829 11.6501C9.54126 11.2667 9.06626 10.4251 9.06626 9.68341V6.26675C9.06626 5.92507 9.34959 5.64175 9.69126 5.64175C10.0329 5.64175 10.3163 5.92507 10.3163 6.26675V9.68341C10.3163 9.98341 10.5662 10.4251 10.8246 10.5751L13.4079 12.1167C13.7079 12.2917 13.8079 12.6751 13.6246 12.9751Z" fill="#6E49BD"/>
</g>
</svg>
