<svg width="30" height="30" viewBox="0 0 30 30" fill="none" xmlns="http://www.w3.org/2000/svg">
<g id="4.svg" clip-path="url(#clip0_1_787)">
<path id="Vector" d="M15 0H14.9999C6.71568 0 0 6.71568 0 14.9999V15C0 23.2842 6.71568 29.9999 14.9999 29.9999H15C23.2842 29.9999 29.9999 23.2842 29.9999 15V14.9999C29.9999 6.71568 23.2842 0 15 0Z" fill="white" fill-opacity="0.1"/>
<path id="Vector_2" d="M14.9968 12.6662C13.7114 12.6662 12.6625 13.7151 12.6625 15.0005C12.6625 16.2859 13.7114 17.3348 14.9968 17.3348C16.2822 17.3348 17.3311 16.2859 17.3311 15.0005C17.3311 13.7151 16.2822 12.6662 14.9968 12.6662ZM21.998 15.0005C21.998 14.0338 22.0067 13.0759 21.9524 12.111C21.8982 10.9903 21.6425 9.99561 20.823 9.17606C20.0017 8.35475 19.0087 8.10083 17.888 8.04654C16.9213 7.99225 15.9634 8.00101 14.9985 8.00101C14.0319 8.00101 13.074 7.99225 12.1091 8.04654C10.9883 8.10083 9.99366 8.3565 9.17411 9.17606C8.35279 9.99736 8.09887 10.9903 8.04459 12.111C7.9903 13.0777 7.99906 14.0356 7.99906 15.0005C7.99906 15.9654 7.9903 16.925 8.04459 17.89C8.09887 19.0107 8.35454 20.0054 9.17411 20.8249C9.99541 21.6462 10.9883 21.9002 12.1091 21.9545C13.0757 22.0088 14.0336 22 14.9985 22C15.9652 22 16.9231 22.0088 17.888 21.9545C19.0087 21.9002 20.0034 21.6445 20.823 20.8249C21.6442 20.0036 21.8982 19.0107 21.9524 17.89C22.0085 16.925 21.998 15.9671 21.998 15.0005ZM14.9968 18.5922C13.0092 18.5922 11.4051 16.9881 11.4051 15.0005C11.4051 13.0129 13.0092 11.4088 14.9968 11.4088C16.9844 11.4088 18.5885 13.0129 18.5885 15.0005C18.5885 16.9881 16.9844 18.5922 14.9968 18.5922ZM18.7356 12.1005C18.2715 12.1005 17.8967 11.7258 17.8967 11.2617C17.8967 10.7977 18.2715 10.4229 18.7356 10.4229C19.1996 10.4229 19.5743 10.7977 19.5743 11.2617C19.5745 11.3719 19.5529 11.481 19.5109 11.5829C19.4687 11.6847 19.407 11.7772 19.329 11.8552C19.2511 11.9331 19.1586 11.9949 19.0567 12.037C18.9549 12.0791 18.8458 12.1007 18.7356 12.1005Z" fill="#6E49BD"/>
</g>
<defs>
<clipPath id="clip0_1_787">
<rect width="30" height="30" fill="white"/>
</clipPath>
</defs>
</svg>
