<svg width="30" height="30" viewBox="0 0 30 30" fill="none" xmlns="http://www.w3.org/2000/svg">
<g id="5.svg" clip-path="url(#clip0_1_782)">
<path id="Vector" d="M15 0H14.9999C6.71568 0 0 6.71568 0 14.9999V15C0 23.2842 6.71568 29.9999 14.9999 29.9999H15C23.2842 29.9999 29.9999 23.2842 29.9999 15V14.9999C29.9999 6.71568 23.2842 0 15 0Z" fill="white" fill-opacity="0.1"/>
<path id="Vector_2" fill-rule="evenodd" clip-rule="evenodd" d="M7.35712 14.5289C11.4914 12.7276 14.2483 11.5401 15.6277 10.9664C19.5662 9.32824 20.3846 9.04368 20.918 9.03428C21.0353 9.03221 21.2976 9.06129 21.4675 9.19916C21.611 9.31558 21.6505 9.47285 21.6694 9.58323C21.6883 9.69361 21.7118 9.94505 21.6931 10.1415C21.4797 12.384 20.5562 17.826 20.0863 20.3376C19.8875 21.4004 19.4961 21.7567 19.1171 21.7916C18.2936 21.8674 17.6682 21.2473 16.8705 20.7244C15.6223 19.9062 14.9172 19.3969 13.7056 18.5985C12.3054 17.6758 13.2131 17.1686 14.011 16.3398C14.2199 16.1229 17.8485 12.8224 17.9188 12.5229C17.9276 12.4855 17.9357 12.3459 17.8528 12.2722C17.7699 12.1985 17.6475 12.2237 17.5592 12.2438C17.434 12.2722 15.44 13.5901 11.5771 16.1976C11.0111 16.5863 10.4985 16.7757 10.0392 16.7657C9.53279 16.7548 8.55874 16.4794 7.83463 16.2441C6.94648 15.9554 6.2406 15.8027 6.30207 15.3124C6.33409 15.057 6.68577 14.7959 7.35712 14.5289Z" fill="#6E49BD"/>
</g>
<defs>
<clipPath id="clip0_1_782">
<rect width="30" height="30" fill="white"/>
</clipPath>
</defs>
</svg>
