<svg width="17" height="16" viewBox="0 0 17 16" fill="none" xmlns="http://www.w3.org/2000/svg">
<g id="SVG">
<g id="Group">
<path id="Vector" d="M10.6464 3.14645C10.4729 3.32001 10.4536 3.58944 10.5886 3.78431L10.6464 3.85355L14.793 8H1C0.723858 8 0.5 8.22386 0.5 8.5C0.5 8.74546 0.676875 8.94961 0.910124 8.99194L1 9H14.793L10.6464 13.1464C10.4729 13.32 10.4536 13.5894 10.5886 13.7843L10.6464 13.8536C10.82 14.0271 11.0894 14.0464 11.2843 13.9114L11.3536 13.8536L16.3536 8.85355L16.391 8.81166L16.4333 8.74977L16.4624 8.69059L16.4834 8.62814L16.4946 8.57407L16.5 8.5L16.4972 8.44657L16.4834 8.37185L16.4622 8.30896L16.4114 8.21569L16.3654 8.15871L11.3536 3.14645C11.1583 2.95118 10.8417 2.95118 10.6464 3.14645Z" fill="#F2F2F2"/>
</g>
</g>
</svg>
