<svg width="24" height="24" viewBox="0 0 24 24" fill="none" xmlns="http://www.w3.org/2000/svg">
<g id="vuesax/bulk/refresh-2">
<g id="refresh-2">
<path id="Vector" d="M22 7.81V16.18C22 19.82 19.83 21.99 16.19 21.99H7.81C4.17 22 2 19.83 2 16.19V7.81C2 4.17 4.17 2 7.81 2H16.18C19.83 2 22 4.17 22 7.81Z" fill="#6E49BD"/>
<path id="Vector_2" d="M12 17.125C10.5322 17.125 9.3842 16.3952 8.6052 15.6736V16.2558C8.6052 16.592 8.3264 16.8708 7.9902 16.8708C7.654 16.8708 7.3752 16.592 7.3752 16.2558V14.0008C7.3752 13.6646 7.654 13.3858 7.9902 13.3858H10.0238C10.36 13.3858 10.6388 13.6646 10.6388 14.0008C10.6388 14.337 10.36 14.6158 10.0238 14.6158H9.2858C9.8926 15.2226 10.8356 15.895 12 15.895C14.1484 15.895 15.895 14.1484 15.895 12C15.895 11.6638 16.1738 11.385 16.51 11.385C16.8462 11.385 17.125 11.6638 17.125 12C17.125 14.829 14.829 17.125 12 17.125ZM7.49 12.615C7.1538 12.615 6.875 12.3362 6.875 12C6.875 9.171 9.171 6.875 12 6.875C13.763 6.875 15.0586 7.6376 15.895 8.3674V7.7442C15.895 7.408 16.1738 7.1292 16.51 7.1292C16.8462 7.1292 17.125 7.408 17.125 7.7442V9.991C17.125 10.0156 17.125 10.0402 17.125 10.0566C17.1168 10.1468 17.0922 10.2288 17.0512 10.3026C17.0102 10.3764 16.9528 10.442 16.879 10.4994C16.8216 10.5404 16.756 10.5732 16.6822 10.5978C16.6248 10.6142 16.5674 10.6224 16.51 10.6224H14.5174C14.1812 10.6224 13.9024 10.3436 13.9024 10.0074C13.9024 9.6712 14.1812 9.3924 14.5174 9.3924H15.198C14.542 8.7856 13.4842 8.1132 12.0164 8.1132C9.868 8.1132 8.1214 9.8598 8.1214 12.0082C8.105 12.3362 7.8262 12.615 7.49 12.615Z" fill="white"/>
</g>
</g>
</svg>
