<svg width="40" height="40" viewBox="0 0 41 40" fill="none" xmlns="http://www.w3.org/2000/svg">
<path d="M39.7999 19.9999C39.7999 9.17512 31.0246 0.399902 20.1999 0.399902C9.37507 0.399902 0.599854 9.17512 0.599854 19.9999C0.599854 30.8247 9.37507 39.5999 20.1999 39.5999C31.0246 39.5999 39.7999 30.8247 39.7999 19.9999Z" stroke="#F2F2F2" stroke-width="0.8"/>
<path d="M39.7999 19.9999C39.7999 9.17512 31.0246 0.399902 20.1999 0.399902C9.37507 0.399902 0.599854 9.17512 0.599854 19.9999C0.599854 30.8247 9.37507 39.5999 20.1999 39.5999C31.0246 39.5999 39.7999 30.8247 39.7999 19.9999Z" fill="#F2F2F2"/>
<path d="M19.9401 9.84375C21.3225 9.84375 21.7568 10.8352 22.1212 11.8251C22.2743 12.2454 25.8664 22.0824 25.9744 22.3776C26.0031 22.46 25.9837 22.5952 25.857 22.6441C25.7297 22.6923 23.8633 23.4181 23.7599 23.4569C23.6565 23.4965 23.5408 23.439 23.5035 23.3357C23.4646 23.2339 22.69 21.0893 22.6029 20.8501H17.2789C17.195 21.0893 16.411 23.2385 16.376 23.3357C16.3403 23.4344 16.2292 23.5012 16.1189 23.4569C16.0085 23.4133 14.1351 22.6877 14.0233 22.6441C13.916 22.6021 13.8671 22.4802 13.9044 22.3776C14.0365 22.0093 17.5741 12.3301 17.7545 11.8251C18.1057 10.85 18.5548 9.84375 19.9401 9.84375ZM13.62 27.4453C13.5081 27.4453 13.4187 27.5385 13.4187 27.6519V29.9511C13.4187 30.0646 13.5081 30.1562 13.62 30.1562H26.2549C26.3691 30.1562 26.4585 30.0646 26.4585 29.9511V27.6519C26.4585 27.5385 26.3691 27.4453 26.2549 27.4453H13.62ZM19.9277 13.0559L18.1281 18.46H21.7568L19.951 13.0559H19.9277Z" fill="#EE2A23"/>
</svg>
