<svg width="27" height="14" viewBox="0 0 27 14" fill="none" xmlns="http://www.w3.org/2000/svg">
<path d="M1 6.14133C0.525772 6.14133 0.141335 6.52577 0.141335 7C0.141335 7.47423 0.525772 7.85867 1 7.85867L1 6.14133ZM26.2995 7.60717C26.6349 7.27184 26.6349 6.72816 26.2995 6.39283L20.835 0.928322C20.4997 0.592993 19.956 0.592993 19.6207 0.928322C19.2854 1.26365 19.2854 1.80733 19.6207 2.14266L24.478 7L19.6207 11.8573C19.2854 12.1927 19.2854 12.7364 19.6207 13.0717C19.956 13.407 20.4997 13.407 20.835 13.0717L26.2995 7.60717ZM1 7.85867L25.6924 7.85867L25.6924 6.14134L1 6.14133L1 7.85867Z" fill="#353535"/>
</svg>
