<svg width="20" height="19" viewBox="0 0 20 19" fill="none" xmlns="http://www.w3.org/2000/svg">
<path d="M10.0002 9.24762C11.1295 9.24762 12.045 8.33212 12.045 7.20279C12.045 6.07346 11.1295 5.15796 10.0002 5.15796C8.87082 5.15796 7.95532 6.07346 7.95532 7.20279C7.95532 8.33212 8.87082 9.24762 10.0002 9.24762Z" fill="#6E49BD"/>
<path d="M12.5893 1.48258C11.7789 1.103 10.8949 0.90625 10 0.90625C9.10511 0.90625 8.22114 1.103 7.41072 1.48258C6.07297 2.14128 5.00936 3.24929 4.4059 4.61284C3.80243 5.9764 3.69752 7.5087 4.10952 8.94178L7.25952 17.3145C7.49641 17.847 7.88335 18.2989 8.373 18.615C8.86265 18.9311 9.43381 19.0977 10.0166 19.0943C10.5994 19.091 11.1686 18.9179 11.6546 18.5962C12.1406 18.2745 12.5223 17.8182 12.7531 17.283L15.9031 8.94178C16.3142 7.50724 16.2074 5.97381 15.6015 4.61007C14.9957 3.24632 13.9294 2.13919 12.5893 1.48258ZM10 10.353C9.37701 10.353 8.76799 10.1682 8.24997 9.82211C7.73196 9.47598 7.32821 8.98402 7.0898 8.40843C6.85138 7.83284 6.789 7.19948 6.91054 6.58844C7.03209 5.9774 7.3321 5.41613 7.77263 4.97559C8.21317 4.53506 8.77444 4.23505 9.38548 4.11351C9.99652 3.99196 10.6299 4.05434 11.2055 4.29276C11.7811 4.53117 12.273 4.93492 12.6191 5.45293C12.9653 5.97095 13.15 6.57997 13.15 7.20298C13.15 8.03841 12.8181 8.83963 12.2274 9.43037C11.6367 10.0211 10.8355 10.353 10 10.353Z" fill="#6E49BD"/>
</svg>
