<svg width="27" height="27" viewBox="0 0 27 27" fill="none" xmlns="http://www.w3.org/2000/svg">
<path d="M0.837808 11.0177C0.870714 11.4691 1.25293 11.8125 1.70434 11.7999H3.93437V19.1498C3.93437 21.3132 5.69781 23.085 7.85781 23.085H19.143C21.3038 23.085 23.0656 21.3132 23.0656 19.1498V11.7999H25.3015C25.7681 11.8109 26.1537 11.4404 26.1638 10.9739C26.1739 10.5073 25.8044 10.1217 25.3192 10.1124H22.6766L18.8249 4.29979C18.6688 4.05848 18.4022 3.91504 18.1153 3.91504C17.4352 3.91336 17.0327 4.67358 17.4167 5.23383L20.655 10.1115H6.35087L9.58918 5.23383C9.98153 4.66345 9.55797 3.89226 8.86778 3.91504C8.59103 3.92179 8.33284 4.06692 8.18181 4.30064L4.3284 10.1124H1.66131C1.15253 10.147 0.803214 10.5528 0.837808 11.0177ZM9.38922 14.1936C9.86509 14.1877 10.2507 14.5767 10.2439 15.0534V18.1424C10.2439 19.2688 8.55475 19.2688 8.55475 18.1424V15.0534C8.54546 14.5834 8.92178 14.1987 9.38922 14.1936ZM13.4932 14.1936C13.9691 14.1877 14.3547 14.5767 14.3462 15.0534V18.1424C14.3716 19.2924 12.6351 19.2924 12.6587 18.1424V15.0534C12.6512 14.5843 13.0249 14.1995 13.4932 14.1936ZM17.5972 14.1936C18.0722 14.1877 18.4587 14.5767 18.4511 15.0534V18.1424C18.4764 19.2924 16.7383 19.2924 16.7636 18.1424V15.0534C16.7552 14.5843 17.1298 14.1995 17.5972 14.1936Z" fill="white"/>
</svg>
