<svg width="21" height="21" viewBox="0 0 21 21" fill="none" xmlns="http://www.w3.org/2000/svg">
<g clip-path="url(#clip0_1_829)">
<path fill-rule="evenodd" clip-rule="evenodd" d="M19.2991 3.1019C18.3006 2.10861 16.9494 1.55103 15.5409 1.55103C14.1325 1.55103 12.7813 2.10861 11.7828 3.1019L10.4999 4.3851L9.21711 3.1019C8.21856 2.10861 6.86739 1.55103 5.45894 1.55103C4.05049 1.55103 2.69932 2.10861 1.70078 3.1019C0.707488 4.10044 0.149902 5.45161 0.149902 6.86005C0.149902 8.26849 0.707488 9.61965 1.70078 10.6182L10.0427 18.9596C10.164 19.0808 10.3285 19.1488 10.4999 19.1488C10.6714 19.1488 10.8359 19.0808 10.9572 18.9596L19.2991 10.6182C20.2924 9.61961 20.8499 8.26846 20.8499 6.86003C20.8499 5.4516 20.2924 4.10045 19.2991 3.1019Z" fill="white"/>
</g>
<defs>
<clipPath id="clip0_1_829">
<rect width="20.7" height="20.7" fill="white" transform="translate(0.149902)"/>
</clipPath>
</defs>
</svg>
