<svg xmlns="http://www.w3.org/2000/svg" width="112" height="12" viewBox="0 0 112 12" fill="none"><path d="M62.5357 4.04476C62.4272 4.0523 62.3443 4.0628 62.2614 4.0628C61.0011 4.06608 59.7404 4.06411 58.4801 4.07428C58.2918 4.07559 58.1875 4.01459 58.0791 3.83454C57.7894 3.35441 57.3084 3.19896 56.8274 3.08844C55.4307 2.76769 54.0217 2.83296 52.6148 2.98218C52.3774 3.0071 52.1275 3.08844 51.9238 3.21864C51.7976 3.29964 51.6786 3.52462 51.6843 3.67909C51.6895 3.8129 51.8544 4.00803 51.9851 4.05427C52.3126 4.17037 52.658 4.25564 53.0014 4.28614C54.6319 4.43077 56.2638 4.55441 57.8955 4.68264C59.0113 4.77053 60.1286 4.85515 61.1861 5.30084C61.9958 5.64225 62.6531 6.15976 62.919 7.1256C63.2648 8.38135 62.8457 9.70991 61.8636 10.4629C61.0942 11.0529 60.2214 11.3566 59.3156 11.5543C57.7218 11.9023 56.1061 11.9754 54.4865 11.9197C52.9789 11.8679 51.4852 11.6911 50.0707 11.0667C48.951 10.5721 48.0158 9.83454 47.4894 8.60043C47.4185 8.43481 47.3755 8.25443 47.3281 8.07832C47.2794 7.89663 47.3449 7.80972 47.5231 7.81005C48.8399 7.81235 50.1566 7.80874 51.4734 7.81858C51.5585 7.81923 51.6816 7.89106 51.7213 7.96911C52.0061 8.53025 52.4985 8.72899 53.0213 8.84082C54.4249 9.14058 55.8426 9.15829 57.2631 9.02317C57.5893 8.99234 57.9144 8.93068 58.2356 8.85886C58.3684 8.82902 58.5045 8.75752 58.6129 8.66733C58.9401 8.39545 58.8932 7.91992 58.5084 7.76118C58.2221 7.64312 57.9132 7.55949 57.6086 7.52965C56.5694 7.42896 55.5272 7.36075 54.4865 7.27679C53.3992 7.1889 52.3086 7.13183 51.2265 6.99704C50.3297 6.88521 49.4596 6.6294 48.6533 6.15255C47.1247 5.2487 46.9841 3.1209 48.2065 1.93763C48.875 1.29057 49.6606 0.892756 50.5061 0.626126C52.7001 -0.0661936 54.9389 -0.123587 57.1871 0.15977C58.5766 0.334899 59.9207 0.713363 61.0846 1.62705C61.7696 2.16458 62.2397 2.87428 62.5122 3.74173C62.5276 3.78961 62.5387 3.84012 62.5441 3.89062C62.5483 3.92932 62.5405 3.96966 62.5357 4.04476Z" fill="url(#paint0_linear_569_13964)"/><path d="M6.79699 6.15567C6.79699 6.14977 6.79699 6.14419 6.79699 6.13829C7.68987 6.13829 8.58396 6.16485 9.47564 6.12747C9.9335 6.10812 10.4073 6.0035 10.6843 5.52534C11.2257 4.59098 10.7519 3.42148 9.76196 3.22536C9.66942 3.207 9.57539 3.19159 9.48195 3.19093C7.71481 3.17552 5.94796 3.16371 4.18112 3.14698C3.98103 3.14501 3.9546 3.26603 3.9555 3.44215C3.9591 4.25056 3.96391 5.05898 3.95249 5.8674C3.94919 6.10221 4.0258 6.16223 4.23039 6.15993C5.08602 6.14977 5.94136 6.15567 6.79699 6.15567ZM5.45225 0.26456C7.07969 0.26456 8.70774 0.239306 10.3346 0.273743C11.402 0.296043 12.4535 0.476419 13.3828 1.11725C14.236 1.70561 14.6416 2.59667 14.8011 3.65204C14.9399 4.57032 14.887 5.46696 14.5749 6.33736C14.1912 7.40618 13.4633 8.08407 12.4968 8.48811C11.621 8.85378 10.7041 8.92528 9.78028 8.92889C7.97408 8.93545 6.16758 8.93053 4.36138 8.93118C3.96601 8.93118 3.96541 8.93282 3.96511 9.35097C3.96481 10.0679 3.9597 10.7848 3.96842 11.5014C3.97082 11.7149 3.92996 11.8152 3.70554 11.8129C2.55788 11.8028 1.40993 11.8044 0.262281 11.812C0.0688022 11.8133 0.000603951 11.7513 0.000603951 11.5335C0.0057113 7.86761 0.00631192 4.2017 2.84309e-06 0.535781C-0.000598022 0.288173 0.0940386 0.253408 0.287217 0.254065C2.009 0.259968 3.73047 0.257672 5.45195 0.257672C5.45195 0.259968 5.45195 0.262263 5.45225 0.26456Z" fill="white"/><path d="M102.314 6.8834H102.664C103.397 6.8834 104.131 6.8834 104.864 6.8834C105.88 6.8834 106.895 6.88471 107.911 6.88012C107.988 6.87979 108.106 6.85815 108.13 6.806C108.156 6.74697 108.122 6.60857 108.071 6.56397C107.856 6.37572 107.645 6.14845 107.394 6.04645C106.405 5.64438 105.373 5.586 104.338 5.7549C103.842 5.83558 103.353 5.99496 102.877 6.17272C102.618 6.26979 102.396 6.48231 102.314 6.8834ZM102.26 8.61338C102.487 9.09843 102.835 9.31652 103.203 9.43721C104.584 9.89012 105.977 9.90324 107.368 9.46935C107.404 9.4582 107.443 9.44705 107.472 9.42245C107.87 9.07482 108.338 9.10171 108.809 9.10696C109.721 9.11778 110.633 9.11024 111.545 9.11024H111.908C111.826 9.28307 111.781 9.40081 111.718 9.5051C111.137 10.4618 110.259 10.9612 109.301 11.3049C107.512 11.9461 105.671 12.0278 103.81 11.8589C102.832 11.77 101.87 11.6011 100.956 11.198C100.065 10.8055 99.2996 10.2364 98.8327 9.28438C98.2138 8.02109 98.4632 6.41442 99.4095 5.41743C100.22 4.56343 101.213 4.10789 102.284 3.82782C103.902 3.4054 105.541 3.33293 107.184 3.59234C108.518 3.80322 109.786 4.22169 110.813 5.25115C111.659 6.0986 111.973 7.17791 112 8.39103C112.006 8.63667 111.866 8.61371 111.722 8.61371C110.368 8.61338 109.014 8.61338 107.66 8.61338H102.666H102.26Z" fill="url(#paint1_linear_569_13964)"/><path d="M32.4821 6.09742C31.6457 6.13186 30.9523 6.17548 30.3364 6.53918C30.0513 6.70775 29.7508 6.94848 29.5901 7.24265C29.2695 7.82773 29.5456 8.5007 30.2036 8.84473C31.1923 9.36192 32.2534 9.42522 33.3167 9.29174C33.8574 9.22385 34.3946 9.04413 34.9105 8.84473C35.262 8.70895 35.5146 8.39838 35.5795 7.96351C35.6742 7.3312 35.4083 6.86583 34.7575 6.53164C33.9878 6.13612 33.1628 6.10267 32.4821 6.09742ZM32.5406 11.998C31.1848 11.9216 29.8497 11.7941 28.5614 11.3234C27.7418 11.024 26.9887 10.5986 26.413 9.86829C25.3044 8.46135 25.4267 6.52574 26.6951 5.28343C27.5006 4.49436 28.4653 4.07425 29.5015 3.8086C30.8026 3.47474 32.1245 3.39111 33.4516 3.48261C34.9796 3.58789 36.4775 3.85845 37.8012 4.7833C38.6148 5.35165 39.2256 6.11087 39.3794 7.17575C39.5533 8.38198 39.1943 9.41275 38.3435 10.2267C37.4813 11.0522 36.4367 11.4513 35.3362 11.6557C34.4132 11.8269 33.4732 11.8882 32.5406 11.998Z" fill="white"/><path d="M80.4637 6.09479C80.1732 6.14168 79.6982 6.20498 79.2292 6.30074C79.0294 6.34141 78.8179 6.41356 78.6539 6.5372C78.3823 6.74152 78.0695 6.95076 77.9094 7.24526C77.5904 7.83165 77.8676 8.50134 78.5265 8.84603C79.5065 9.35797 80.5556 9.4006 81.6131 9.30484C82.174 9.25401 82.7332 9.16152 83.2376 8.85554C83.5681 8.65515 83.8363 8.39541 83.9003 7.96021C83.9932 7.32856 83.7261 6.86352 83.0753 6.53031C82.305 6.13578 81.4804 6.10233 80.4637 6.09479ZM80.8389 12C79.4822 11.9226 78.1462 11.7921 76.86 11.3165C75.7947 10.9223 74.8522 10.3235 74.3033 9.19563C73.6691 7.89232 73.9698 6.31124 75.0114 5.28702C75.8154 4.49632 76.7804 4.07555 77.8163 3.80957C79.1174 3.47538 80.4391 3.39175 81.7664 3.48194C83.2466 3.58263 84.7004 3.83974 85.9977 4.69867C86.7899 5.2234 87.4184 5.9108 87.6419 6.9337C87.9276 8.24029 87.5737 9.33468 86.6667 10.2212C85.8126 11.0558 84.7626 11.4503 83.6621 11.6543C82.7301 11.8272 81.7805 11.8892 80.8389 12Z" fill="url(#paint2_linear_569_13964)"/><path d="M71.1631 3.71502C71.6051 3.71535 72.047 3.72355 72.489 3.71174C72.711 3.70584 72.7885 3.80488 72.7864 4.03872C72.7798 4.76514 72.7771 5.4919 72.7882 6.21833C72.7921 6.46954 72.6954 6.52989 72.4847 6.52792C71.6102 6.51939 70.7356 6.53185 69.8614 6.51972C69.6279 6.51677 69.548 6.59712 69.557 6.8526C69.5733 7.31239 69.5579 7.7735 69.5633 8.23396C69.5697 8.78099 69.7454 9.06828 70.2351 9.11682C70.8291 9.17552 71.4323 9.16273 72.0296 9.13322C72.8876 9.09058 72.7326 8.96826 72.7464 9.82291C72.7536 10.2834 72.7392 10.7441 72.7509 11.2046C72.7566 11.4332 72.7011 11.5801 72.4751 11.6119C71.7775 11.71 71.082 11.8671 70.382 11.8956C69.6066 11.9271 68.8174 11.914 68.0519 11.791C67.0223 11.625 66.1793 11.0938 65.8818 9.90064C65.7968 9.55989 65.7782 9.19389 65.7689 8.83838C65.7518 8.17361 65.7572 7.50786 65.7668 6.84276C65.7701 6.60794 65.7037 6.5125 65.4769 6.52005C65.0259 6.53513 64.5741 6.5171 64.1231 6.52759C63.9224 6.53251 63.8335 6.46659 63.8365 6.23276C63.8455 5.49583 63.8431 4.75891 63.838 4.02199C63.8365 3.80291 63.911 3.70715 64.1207 3.7124C64.5437 3.72289 64.9667 3.71568 65.39 3.71502C65.7773 3.71437 65.7968 3.69961 65.8127 3.26473C65.8281 2.8456 65.8377 2.42582 65.8338 2.00636C65.832 1.8004 65.893 1.71185 66.0897 1.70628C67.1521 1.67676 68.2138 1.64003 69.2755 1.59936C69.4684 1.59182 69.5444 1.6643 69.5402 1.88075C69.5303 2.40253 69.5423 2.92464 69.5351 3.44675C69.5321 3.64385 69.5976 3.72092 69.7809 3.71764C70.2414 3.70912 70.7023 3.71469 71.1631 3.71502Z" fill="url(#paint3_linear_569_13964)"/><path d="M20.3628 5.07834C20.4551 4.93896 20.5278 4.77629 20.6425 4.6638C21.2064 4.11021 21.9019 3.84325 22.6302 3.7242C23.2776 3.6186 23.9395 3.61926 24.5944 3.56645C24.8447 3.54645 24.9414 3.63893 24.936 3.93082C24.9195 4.83106 24.9306 5.73196 24.93 6.63286C24.9297 7.05232 24.8906 7.0474 24.4983 6.98903C23.8499 6.89228 23.1938 6.80176 22.5416 6.80471C21.9939 6.80734 21.4738 7.02182 21.0457 7.43013C20.5202 7.93092 20.3914 8.59963 20.3848 9.31458C20.3781 10.0413 20.3763 10.7681 20.386 11.4948C20.3893 11.7352 20.312 11.8146 20.0912 11.813C19.01 11.8035 17.9284 11.8038 16.8469 11.8126C16.6308 11.8146 16.5482 11.7457 16.5488 11.5004C16.5548 9.01318 16.5548 6.52595 16.5494 4.03871C16.5488 3.79111 16.6179 3.69731 16.8559 3.69993C17.8903 3.71141 18.9247 3.70944 19.959 3.70092C20.1663 3.69895 20.2472 3.77208 20.239 4.00002C20.2273 4.33191 20.236 4.66446 20.236 4.99668C20.2784 5.0239 20.3205 5.05112 20.3628 5.07834Z" fill="white"/><path d="M93.0556 5.0416C93.1481 4.98093 93.1953 4.96453 93.2229 4.92977C93.8616 4.13054 94.7242 3.83144 95.6405 3.69697C96.2338 3.61007 96.8383 3.61335 97.4374 3.56645C97.6891 3.54677 97.7576 3.66254 97.754 3.92523C97.7417 4.83597 97.7501 5.74704 97.7489 6.65811C97.7486 7.04313 97.7063 7.0533 97.3496 6.99525C96.7755 6.90178 96.1972 6.80569 95.6186 6.78765C94.9669 6.76765 94.3537 6.96377 93.8487 7.44849C93.3329 7.94338 93.2115 8.60651 93.2043 9.30965C93.1968 10.0361 93.1962 10.7632 93.2052 11.4896C93.2079 11.7244 93.1412 11.8149 92.915 11.813C91.8244 11.8031 90.7335 11.8038 89.6426 11.8126C89.4284 11.8143 89.3687 11.7244 89.369 11.505C89.3735 9.0076 89.3741 6.5102 89.3687 4.0128C89.3681 3.76683 89.4561 3.69894 89.6706 3.70091C90.705 3.70944 91.7394 3.7114 92.7738 3.6996C93.0066 3.69697 93.0664 3.79733 93.0583 4.02592C93.0471 4.34797 93.0556 4.67068 93.0556 5.0416Z" fill="url(#paint4_linear_569_13964)"/><path d="M43.2169 6.64191C42.6716 6.64191 42.1266 6.63469 41.5817 6.64584C41.3858 6.64978 41.3182 6.57927 41.32 6.36478C41.3275 5.36221 41.3278 4.35964 41.3194 3.35708C41.3173 3.13734 41.3912 3.07864 41.5826 3.07995C42.6728 3.08782 43.7634 3.0875 44.8537 3.08061C45.0619 3.0793 45.1562 3.13341 45.1529 3.38889C45.1409 4.3708 45.1418 5.35303 45.152 6.33494C45.1547 6.5855 45.0643 6.64978 44.8522 6.64551C44.3072 6.63469 43.7622 6.64191 43.2169 6.64191Z" fill="white"/><path d="M43.2123 11.8086C42.667 11.8086 42.1217 11.8007 41.5767 11.8128C41.3766 11.8171 41.3181 11.7394 41.3199 11.5285C41.3277 10.5462 41.3274 9.56401 41.3202 8.58178C41.3187 8.35614 41.3929 8.27612 41.6002 8.27743C42.6811 8.28465 43.7624 8.28498 44.8433 8.27743C45.078 8.27579 45.154 8.37582 45.1519 8.62441C45.1432 9.58599 45.1432 10.5479 45.1519 11.5098C45.154 11.7367 45.0846 11.8164 44.8761 11.8122C44.3218 11.8013 43.7669 11.8086 43.2123 11.8086Z" fill="white"/><defs><linearGradient id="paint0_linear_569_13964" x1="53.2935" y1="11.838" x2="54.4258" y2="-0.167661" gradientUnits="userSpaceOnUse"><stop offset="0.000861673" stop-color="#0073D8"/><stop offset="0.2843" stop-color="#0071D8"/><stop offset="1" stop-color="#0017AA"/></linearGradient><linearGradient id="paint1_linear_569_13964" x1="103.63" y1="11.865" x2="104.3" y2="3.29837" gradientUnits="userSpaceOnUse"><stop offset="0.000861673" stop-color="#0073D8"/><stop offset="0.2843" stop-color="#0071D8"/><stop offset="1" stop-color="#0017AA"/></linearGradient><linearGradient id="paint2_linear_569_13964" x1="79.2081" y1="11.9294" x2="79.8741" y2="3.30289" gradientUnits="userSpaceOnUse"><stop offset="0.000861673" stop-color="#0073D8"/><stop offset="0.2843" stop-color="#0071D8"/><stop offset="1" stop-color="#0017AA"/></linearGradient><linearGradient id="paint3_linear_569_13964" x1="67.241" y1="11.8251" x2="68.7086" y2="1.57184" gradientUnits="userSpaceOnUse"><stop offset="0.000861673" stop-color="#0073D8"/><stop offset="0.2843" stop-color="#0071D8"/><stop offset="1" stop-color="#0017AA"/></linearGradient><linearGradient id="paint4_linear_569_13964" x1="92.5578" y1="11.7449" x2="93.5659" y2="3.4979" gradientUnits="userSpaceOnUse"><stop offset="0.000861673" stop-color="#0073D8"/><stop offset="0.2843" stop-color="#0071D8"/><stop offset="1" stop-color="#0017AA"/></linearGradient></defs></svg>