<svg xmlns="http://www.w3.org/2000/svg" width="40" height="40" viewBox="0 0 40 40" fill="none"><rect width="40" height="40" rx="20" fill="#1A1A1A"/><path d="M24.3335 20.332C22.1252 20.332 20.3335 22.1237 20.3335 24.332C20.3335 25.082 20.5418 25.7904 20.9168 26.3904C21.6085 27.5487 22.8752 28.332 24.3335 28.332C25.7918 28.332 27.0668 27.5487 27.7502 26.3904C28.1168 25.7904 28.3335 25.082 28.3335 24.332C28.3335 22.1237 26.5418 20.332 24.3335 20.332ZM26.3168 23.807L24.1835 25.7737C24.0668 25.882 23.9085 25.9404 23.7585 25.9404C23.6002 25.9404 23.4418 25.882 23.3168 25.757L22.3335 24.7737C22.0918 24.532 22.0918 24.132 22.3335 23.8904C22.5752 23.6487 22.9752 23.6487 23.2168 23.8904L23.7752 24.4487L25.4668 22.882C25.7168 22.6487 26.1168 22.6654 26.3502 22.9154C26.5835 23.1737 26.5668 23.5737 26.3168 23.807Z" fill="white"/><path d="M28.3332 17.2755C28.3332 18.2672 28.1748 19.1839 27.8998 20.0339C27.8498 20.2089 27.6415 20.2589 27.4915 20.1505C26.5832 19.4755 25.4748 19.1172 24.3332 19.1172C21.4415 19.1172 19.0832 21.4755 19.0832 24.3672C19.0832 25.2672 19.3165 26.1505 19.7582 26.9339C19.8915 27.1672 19.7332 27.4672 19.4832 27.3755C17.4748 26.6922 13.4165 24.2005 12.0998 20.0339C11.8248 19.1839 11.6665 18.2672 11.6665 17.2755C11.6665 14.7005 13.7415 12.6172 16.2998 12.6172C17.8082 12.6172 19.1582 13.3505 19.9998 14.4755C20.8415 13.3505 22.1915 12.6172 23.6998 12.6172C26.2582 12.6172 28.3332 14.7005 28.3332 17.2755Z" fill="white"/></svg>