<svg xmlns="http://www.w3.org/2000/svg" width="40" height="40" viewBox="0 0 40 40" fill="none"><rect width="40" height="40" rx="20" fill="#1A1A1A"/><path d="M19.2082 22.4596L17.6665 24.0013C17.3415 24.3263 16.8248 24.3263 16.4915 24.0096C16.3998 23.918 16.3082 23.8346 16.2165 23.743C15.3582 22.8763 14.5832 21.968 13.8915 21.018C13.2082 20.068 12.6582 19.118 12.2582 18.1763C11.8665 17.2263 11.6665 16.318 11.6665 15.4513C11.6665 14.8846 11.7665 14.343 11.9665 13.843C12.1665 13.3346 12.4832 12.868 12.9248 12.4513C13.4582 11.9263 14.0415 11.668 14.6582 11.668C14.8915 11.668 15.1248 11.718 15.3332 11.818C15.5498 11.918 15.7415 12.068 15.8915 12.2846L17.8248 15.0096C17.9748 15.218 18.0832 15.4096 18.1582 15.593C18.2332 15.768 18.2748 15.943 18.2748 16.1013C18.2748 16.3013 18.2165 16.5013 18.0998 16.693C17.9915 16.8846 17.8332 17.0846 17.6332 17.2846L16.9998 17.943C16.9082 18.0346 16.8665 18.143 16.8665 18.2763C16.8665 18.343 16.8748 18.4013 16.8915 18.468C16.9165 18.5346 16.9415 18.5846 16.9582 18.6346C17.1082 18.9096 17.3665 19.268 17.7332 19.7013C18.1082 20.1346 18.5082 20.5763 18.9415 21.018C19.0248 21.1013 19.1165 21.1846 19.1998 21.268C19.5332 21.593 19.5415 22.1263 19.2082 22.4596Z" fill="#0071D8"/><path d="M28.3083 25.2742C28.3083 25.5076 28.2667 25.7492 28.1833 25.9826C28.1583 26.0492 28.1333 26.1159 28.1 26.1826C27.9583 26.4826 27.775 26.7659 27.5333 27.0326C27.125 27.4826 26.675 27.8076 26.1667 28.0159C26.1583 28.0159 26.15 28.0242 26.1417 28.0242C25.65 28.2242 25.1167 28.3326 24.5417 28.3326C23.6917 28.3326 22.7833 28.1326 21.825 27.7242C20.8667 27.3159 19.9083 26.7659 18.9583 26.0742C18.6333 25.8326 18.3083 25.5909 18 25.3326L20.725 22.6076C20.9583 22.7826 21.1667 22.9159 21.3417 23.0076C21.3833 23.0242 21.4333 23.0492 21.4917 23.0742C21.5583 23.0992 21.625 23.1076 21.7 23.1076C21.8417 23.1076 21.95 23.0576 22.0417 22.9659L22.675 22.3409C22.8833 22.1326 23.0833 21.9742 23.275 21.8742C23.4667 21.7576 23.6583 21.6992 23.8667 21.6992C24.025 21.6992 24.1917 21.7326 24.375 21.8076C24.5583 21.8826 24.75 21.9909 24.9583 22.1326L27.7167 24.0909C27.9333 24.2409 28.0833 24.4159 28.175 24.6242C28.2583 24.8326 28.3083 25.0409 28.3083 25.2742Z" fill="#0071D8"/></svg>