<svg xmlns="http://www.w3.org/2000/svg" width="40" height="40" viewBox="0 0 40 40" fill="none"><rect width="40" height="40" rx="20" fill="#1A1A1A"/><path d="M24.6166 17.3415C25.9789 17.3415 27.0832 16.2372 27.0832 14.8749C27.0832 13.5126 25.9789 12.4082 24.6166 12.4082C23.2543 12.4082 22.1499 13.5126 22.1499 14.8749C22.1499 16.2372 23.2543 17.3415 24.6166 17.3415Z" fill="white"/><path d="M15.3837 17.3415C16.746 17.3415 17.8503 16.2372 17.8503 14.8749C17.8503 13.5126 16.746 12.4082 15.3837 12.4082C14.0214 12.4082 12.917 13.5126 12.917 14.8749C12.917 16.2372 14.0214 17.3415 15.3837 17.3415Z" fill="white"/><path d="M24.6166 27.5915C25.9789 27.5915 27.0832 26.4872 27.0832 25.1249C27.0832 23.7626 25.9789 22.6582 24.6166 22.6582C23.2543 22.6582 22.1499 23.7626 22.1499 25.1249C22.1499 26.4872 23.2543 27.5915 24.6166 27.5915Z" fill="white"/><path d="M15.3837 27.5915C16.746 27.5915 17.8503 26.4872 17.8503 25.1249C17.8503 23.7626 16.746 22.6582 15.3837 22.6582C14.0214 22.6582 12.917 23.7626 12.917 25.1249C12.917 26.4872 14.0214 27.5915 15.3837 27.5915Z" fill="white"/></svg>