<svg xmlns="http://www.w3.org/2000/svg" width="40" height="40" viewBox="0 0 40 40" fill="none"><rect width="40" height="40" rx="20" fill="#1A1A1A"/><path d="M23.5416 28.7507C24.347 28.7507 24.9999 28.0977 24.9999 27.2923C24.9999 26.4869 24.347 25.834 23.5416 25.834C22.7362 25.834 22.0833 26.4869 22.0833 27.2923C22.0833 28.0977 22.7362 28.7507 23.5416 28.7507Z" fill="white"/><path d="M16.8751 28.7507C17.6805 28.7507 18.3334 28.0977 18.3334 27.2923C18.3334 26.4869 17.6805 25.834 16.8751 25.834C16.0697 25.834 15.4167 26.4869 15.4167 27.2923C15.4167 28.0977 16.0697 28.7507 16.8751 28.7507Z" fill="white"/><path d="M14.0334 13.2827L13.8667 15.3243C13.8334 15.716 14.1417 16.041 14.5334 16.041H27.2917C27.6417 16.041 27.9334 15.7743 27.9584 15.4243C28.0667 13.9493 26.9417 12.7493 25.4667 12.7493H15.2251C15.1417 12.3827 14.9751 12.0327 14.7167 11.741C14.3001 11.2993 13.7167 11.041 13.1167 11.041H11.6667C11.3251 11.041 11.0417 11.3243 11.0417 11.666C11.0417 12.0077 11.3251 12.291 11.6667 12.291H13.1167C13.3751 12.291 13.6167 12.3993 13.7917 12.5827C13.9667 12.7743 14.0501 13.0243 14.0334 13.2827Z" fill="white"/><path d="M27.0916 17.291H14.3083C13.9583 17.291 13.675 17.5577 13.6416 17.8993L13.3416 21.5243C13.225 22.9493 14.3416 24.166 15.7666 24.166H25.0333C26.2833 24.166 27.3833 23.141 27.475 21.891L27.75 17.9993C27.7833 17.616 27.4833 17.291 27.0916 17.291Z" fill="white"/></svg>