<svg width="18" height="18" viewBox="0 0 18 18" fill="none" xmlns="http://www.w3.org/2000/svg">
<path d="M16.7739 11.74C15.8595 11.0052 15.0208 10.648 14.2097 10.648C13.0364 10.648 12.1916 11.3943 11.4267 12.159C11.3387 12.247 11.2322 12.288 11.0916 12.288C10.4471 12.2881 9.3132 11.4809 7.7215 9.88904C5.84896 8.01637 5.14097 6.8253 5.61704 6.34905C6.90758 5.05894 7.31047 3.76564 5.33456 1.30828C4.6272 0.427885 3.93513 0 3.21881 0C2.25278 0 1.51842 0.772198 0.870516 1.45356C0.758502 1.57133 0.65269 1.6826 0.548945 1.78634C-0.183347 2.51857 -0.182971 4.11572 0.55001 6.05893C1.35422 8.19103 2.9421 10.5104 5.02119 12.5898C6.62905 14.1975 8.37849 15.4968 10.0805 16.3692C11.5665 17.1309 13.0078 17.539 14.139 17.539C14.1392 17.539 14.1393 17.539 14.1395 17.539C14.8474 17.539 15.4224 17.3845 15.8022 17.0705C16.5737 16.4327 18.0095 15.2513 18 13.8479C17.9947 13.0953 17.5823 12.3899 16.7739 11.74Z" fill="#6649BD"/>
</svg>
