<svg width="40" height="40" viewBox="0 0 40 40" fill="none" xmlns="http://www.w3.org/2000/svg">
<path d="M30 12H10V32.7692H30V12Z" fill="#F2F2F2"/>
<path d="M39.5999 19.9999C39.5999 9.17512 30.8247 0.399902 19.9999 0.399902C9.17512 0.399902 0.399902 9.17512 0.399902 19.9999C0.399902 30.8247 9.17512 39.5999 19.9999 39.5999C30.8247 39.5999 39.5999 30.8247 39.5999 19.9999Z" fill="#F2F2F2"/>
<path d="M10 12H30V22.1854C30 24.7973 28.6086 27.2053 26.3462 28.5162L20 32.2544L13.6606 28.5162C11.3982 27.215 10.0097 24.7973 10.0097 22.1854V12H10Z" fill="#FFDD2D"/>
<path fill-rule="evenodd" clip-rule="evenodd" d="M15.3845 17.3596V20.5249C15.8214 20.0395 16.6079 19.7093 17.5012 19.7093H18.4819V23.3893C18.4819 24.3699 18.2197 25.2244 17.8216 25.7002H22.1768C21.7788 25.2244 21.5384 24.3699 21.5384 23.3893V19.7093H22.4922C23.3952 19.7093 24.188 20.0395 24.6152 20.5249V17.3596H15.3845Z" fill="#333333"/>
</svg>
