<svg width="17" height="17" viewBox="0 0 17 17" fill="none" xmlns="http://www.w3.org/2000/svg">
<path d="M16.3613 16.0003L12.7422 12.3812M12.7422 12.3812C13.3613 11.7621 13.8523 11.0272 14.1874 10.2183C14.5224 9.40949 14.6949 8.54257 14.6949 7.66707C14.6949 6.79158 14.5224 5.92466 14.1874 5.11582C13.8523 4.30697 13.3613 3.57203 12.7422 2.95296C12.1231 2.3339 11.3882 1.84283 10.5793 1.50779C9.7705 1.17275 8.90358 1.00031 8.02809 1.00031C7.1526 1.00031 6.28568 1.17275 5.47683 1.50779C4.66798 1.84283 3.93304 2.3339 3.31398 2.95296C2.06372 4.20322 1.36133 5.89894 1.36133 7.66707C1.36133 9.43521 2.06372 11.1309 3.31398 12.3812C4.56424 13.6314 6.25995 14.3338 8.02809 14.3338C9.79623 14.3338 11.4919 13.6314 12.7422 12.3812Z" stroke="white" stroke-linecap="round" stroke-linejoin="round"/>
<path d="M16.3613 16.0003L12.7422 12.3812M12.7422 12.3812C13.3613 11.7621 13.8523 11.0272 14.1874 10.2183C14.5224 9.40949 14.6949 8.54257 14.6949 7.66707C14.6949 6.79158 14.5224 5.92466 14.1874 5.11582C13.8523 4.30697 13.3613 3.57203 12.7422 2.95296C12.1231 2.3339 11.3882 1.84283 10.5793 1.50779C9.7705 1.17275 8.90358 1.00031 8.02809 1.00031C7.1526 1.00031 6.28568 1.17275 5.47683 1.50779C4.66798 1.84283 3.93304 2.3339 3.31398 2.95296C2.06372 4.20322 1.36133 5.89894 1.36133 7.66707C1.36133 9.43521 2.06372 11.1309 3.31398 12.3812C4.56424 13.6314 6.25995 14.3338 8.02809 14.3338C9.79623 14.3338 11.4919 13.6314 12.7422 12.3812Z" stroke="white" stroke-linecap="round" stroke-linejoin="round"/>
</svg>
